<?xml version="1.0" encoding="UTF-8"?>
<svg version="1.1" xmlns="http://www.w3.org/2000/svg" width="308" height="308">
<path d="M0 0 C68.97 0 137.94 0 209 0 C209 7.26 209 14.52 209 22 C205.37 22 201.74 22 198 22 C198 25.63 198 29.26 198 33 C194.37 33 190.74 33 187 33 C187 36.63 187 40.26 187 44 C183.37 44 179.74 44 176 44 C176 47.63 176 51.26 176 55 C172.37 55 168.74 55 165 55 C165 58.63 165 62.26 165 66 C128.7 66 92.4 66 55 66 C55 76.89 55 87.78 55 99 C87.67 99 120.34 99 154 99 C154 109.89 154 120.78 154 132 C150.37 132 146.74 132 143 132 C143 135.63 143 139.26 143 143 C135.74 143 128.48 143 121 143 C121 146.63 121 150.26 121 154 C99.22 154 77.44 154 55 154 C55 183.04 55 212.08 55 242 C51.37 242 47.74 242 44 242 C44 249.26 44 256.52 44 264 C40.37 264 36.74 264 33 264 C33 267.63 33 271.26 33 275 C29.37 275 25.74 275 22 275 C22 278.63 22 282.26 22 286 C18.37 286 14.74 286 11 286 C11 289.63 11 293.26 11 297 C7.37 297 3.74 297 0 297 C0 198.99 0 100.98 0 0 Z " fill="#4067B5" transform="translate(55,0)"/>
<path d="M0 0 C68.97 0 137.94 0 209 0 C209 7.26 209 14.52 209 22 C205.37 22 201.74 22 198 22 C198 25.63 198 29.26 198 33 C194.37 33 190.74 33 187 33 C187 36.63 187 40.26 187 44 C183.37 44 179.74 44 176 44 C176 47.63 176 51.26 176 55 C172.37 55 168.74 55 165 55 C165 58.63 165 62.26 165 66 C128.7 66 92.4 66 55 66 C55 76.89 55 87.78 55 99 C87.67 99 120.34 99 154 99 C154 109.89 154 120.78 154 132 C150.37 132 146.74 132 143 132 C143 135.63 143 139.26 143 143 C135.74 143 128.48 143 121 143 C121 146.63 121 150.26 121 154 C99.22 154 77.44 154 55 154 C55 183.04 55 212.08 55 242 C51.37 242 47.74 242 44 242 C44 249.26 44 256.52 44 264 C40.37 264 36.74 264 33 264 C33 267.63 33 271.26 33 275 C29.37 275 25.74 275 22 275 C22 278.63 22 282.26 22 286 C18.37 286 14.74 286 11 286 C11 289.63 11 293.26 11 297 C7.37 297 3.74 297 0 297 C0 198.99 0 100.98 0 0 Z M11 11 C11 90.86 11 170.72 11 253 C14.63 253 18.26 253 22 253 C22 249.37 22 245.74 22 242 C25.63 242 29.26 242 33 242 C33 234.74 33 227.48 33 220 C36.63 220 40.26 220 44 220 C44 194.59 44 169.18 44 143 C65.78 143 87.56 143 110 143 C110 139.37 110 135.74 110 132 C117.26 132 124.52 132 132 132 C132 128.37 132 124.74 132 121 C135.63 121 139.26 121 143 121 C143 117.37 143 113.74 143 110 C110.33 110 77.66 110 44 110 C44 88.22 44 66.44 44 44 C83.93 44 123.86 44 165 44 C165 40.37 165 36.74 165 33 C168.63 33 172.26 33 176 33 C176 29.37 176 25.74 176 22 C179.63 22 183.26 22 187 22 C187 18.37 187 14.74 187 11 C150.7 11 114.4 11 77 11 C77 14.63 77 18.26 77 22 C73.37 22 69.74 22 66 22 C66 18.37 66 14.74 66 11 C47.85 11 29.7 11 11 11 Z " fill="#00235C" transform="translate(55,0)"/>
<path d="M0 0 C36.3 0 72.6 0 110 0 C110 3.63 110 7.26 110 11 C106.37 11 102.74 11 99 11 C99 14.63 99 18.26 99 22 C95.37 22 91.74 22 88 22 C88 25.63 88 29.26 88 33 C55.33 33 22.66 33 -11 33 C-11 29.37 -11 25.74 -11 22 C-7.37 22 -3.74 22 0 22 C0 14.74 0 7.48 0 0 Z " fill="#4163B6" transform="translate(132,11)"/>
<path d="M0 0 C18.15 0 36.3 0 55 0 C55 3.63 55 7.26 55 11 C58.63 11 62.26 11 66 11 C66 14.63 66 18.26 66 22 C62.37 22 58.74 22 55 22 C55 25.63 55 29.26 55 33 C47.74 33 40.48 33 33 33 C33 40.26 33 47.52 33 55 C29.37 55 25.74 55 22 55 C22 58.63 22 62.26 22 66 C18.37 66 14.74 66 11 66 C11 69.63 11 73.26 11 77 C7.37 77 3.74 77 0 77 C0 51.59 0 26.18 0 0 Z " fill="#A2C5FD" transform="translate(66,11)"/>
<path d="M0 0 C3.63 0 7.26 0 11 0 C11 25.41 11 50.82 11 77 C7.37 77 3.74 77 0 77 C0 84.26 0 91.52 0 99 C-3.63 99 -7.26 99 -11 99 C-11 102.63 -11 106.26 -11 110 C-14.63 110 -18.26 110 -22 110 C-22 84.59 -22 59.18 -22 33 C-18.37 33 -14.74 33 -11 33 C-11 25.74 -11 18.48 -11 11 C-7.37 11 -3.74 11 0 11 C0 7.37 0 3.74 0 0 Z " fill="#406DB4" transform="translate(88,143)"/>
<path d="M0 0 C25.41 0 50.82 0 77 0 C77 3.63 77 7.26 77 11 C73.37 11 69.74 11 66 11 C66 14.63 66 18.26 66 22 C58.74 22 51.48 22 44 22 C44 25.63 44 29.26 44 33 C22.22 33 0.44 33 -22 33 C-22 29.37 -22 25.74 -22 22 C-18.37 22 -14.74 22 -11 22 C-11 18.37 -11 14.74 -11 11 C-7.37 11 -3.74 11 0 11 C0 7.37 0 3.74 0 0 Z " fill="#406DB4" transform="translate(121,110)"/>
<path d="M0 0 C18.15 0 36.3 0 55 0 C55 3.63 55 7.26 55 11 C51.37 11 47.74 11 44 11 C44 14.63 44 18.26 44 22 C40.37 22 36.74 22 33 22 C33 25.63 33 29.26 33 33 C18.48 33 3.96 33 -11 33 C-11 29.37 -11 25.74 -11 22 C-7.37 22 -3.74 22 0 22 C0 14.74 0 7.48 0 0 Z " fill="#406DB4" transform="translate(187,11)"/>
<path d="M0 0 C10.89 0 21.78 0 33 0 C33 10.89 33 21.78 33 33 C29.37 33 25.74 33 22 33 C22 36.63 22 40.26 22 44 C18.37 44 14.74 44 11 44 C11 47.63 11 51.26 11 55 C7.37 55 3.74 55 0 55 C0 36.85 0 18.7 0 0 Z " fill="#A2C5FD" transform="translate(66,33)"/>
<path d="M0 0 C10.89 0 21.78 0 33 0 C33 3.63 33 7.26 33 11 C29.37 11 25.74 11 22 11 C22 14.63 22 18.26 22 22 C18.37 22 14.74 22 11 22 C11 25.63 11 29.26 11 33 C3.74 33 -3.52 33 -11 33 C-11 29.37 -11 25.74 -11 22 C-7.37 22 -3.74 22 0 22 C0 14.74 0 7.48 0 0 Z " fill="#406DB4" transform="translate(132,11)"/>
<path d="M0 0 C3.63 0 7.26 0 11 0 C11 7.26 11 14.52 11 22 C7.37 22 3.74 22 0 22 C0 25.63 0 29.26 0 33 C-3.63 33 -7.26 33 -11 33 C-11 25.74 -11 18.48 -11 11 C-7.37 11 -3.74 11 0 11 C0 7.37 0 3.74 0 0 Z " fill="#CCF8FE" transform="translate(77,220)"/>
<path d="M0 0 C7.26 0 14.52 0 22 0 C22 7.26 22 14.52 22 22 C14.74 22 7.48 22 0 22 C0 14.74 0 7.48 0 0 Z " fill="#CCF8FE" transform="translate(66,11)"/>
<path d="M0 0 C3.63 0 7.26 0 11 0 C11 3.63 11 7.26 11 11 C7.37 11 3.74 11 0 11 C0 7.37 0 3.74 0 0 Z " fill="#CCF8FE" transform="translate(66,242)"/>
<path d="M0 0 C3.63 0 7.26 0 11 0 C11 3.63 11 7.26 11 11 C7.37 11 3.74 11 0 11 C0 7.37 0 3.74 0 0 Z " fill="#A2C5FD" transform="translate(66,231)"/>
<path d="M0 0 C3.63 0 7.26 0 11 0 C11 3.63 11 7.26 11 11 C7.37 11 3.74 11 0 11 C0 7.37 0 3.74 0 0 Z " fill="#A2C5FD" transform="translate(77,220)"/>
<path d="M0 0 C3.63 0 7.26 0 11 0 C11 3.63 11 7.26 11 11 C7.37 11 3.74 11 0 11 C0 7.37 0 3.74 0 0 Z " fill="#406DB4" transform="translate(66,220)"/>
<path d="M0 0 C3.63 0 7.26 0 11 0 C11 3.63 11 7.26 11 11 C7.37 11 3.74 11 0 11 C0 7.37 0 3.74 0 0 Z " fill="#A2C5FD" transform="translate(88,209)"/>
<path d="M0 0 C3.63 0 7.26 0 11 0 C11 3.63 11 7.26 11 11 C7.37 11 3.74 11 0 11 C0 7.37 0 3.74 0 0 Z " fill="#406DB4" transform="translate(77,209)"/>
<path d="M0 0 C3.63 0 7.26 0 11 0 C11 3.63 11 7.26 11 11 C7.37 11 3.74 11 0 11 C0 7.37 0 3.74 0 0 Z " fill="#A2C5FD" transform="translate(66,209)"/>
<path d="M0 0 C3.63 0 7.26 0 11 0 C11 3.63 11 7.26 11 11 C7.37 11 3.74 11 0 11 C0 7.37 0 3.74 0 0 Z " fill="#406DB4" transform="translate(88,198)"/>
<path d="M0 0 C3.63 0 7.26 0 11 0 C11 3.63 11 7.26 11 11 C7.37 11 3.74 11 0 11 C0 7.37 0 3.74 0 0 Z " fill="#A2C5FD" transform="translate(77,198)"/>
<path d="M0 0 C3.63 0 7.26 0 11 0 C11 3.63 11 7.26 11 11 C7.37 11 3.74 11 0 11 C0 7.37 0 3.74 0 0 Z " fill="#A2C5FD" transform="translate(88,187)"/>
<path d="M0 0 C3.63 0 7.26 0 11 0 C11 3.63 11 7.26 11 11 C7.37 11 3.74 11 0 11 C0 7.37 0 3.74 0 0 Z " fill="#406DB4" transform="translate(154,132)"/>
<path d="M0 0 C3.63 0 7.26 0 11 0 C11 3.63 11 7.26 11 11 C7.37 11 3.74 11 0 11 C0 7.37 0 3.74 0 0 Z " fill="#A2C5FD" transform="translate(143,132)"/>
<path d="M0 0 C3.63 0 7.26 0 11 0 C11 3.63 11 7.26 11 11 C7.37 11 3.74 11 0 11 C0 7.37 0 3.74 0 0 Z " fill="#A2C5FD" transform="translate(176,121)"/>
<path d="M0 0 C3.63 0 7.26 0 11 0 C11 3.63 11 7.26 11 11 C7.37 11 3.74 11 0 11 C0 7.37 0 3.74 0 0 Z " fill="#406DB4" transform="translate(165,121)"/>
<path d="M0 0 C3.63 0 7.26 0 11 0 C11 3.63 11 7.26 11 11 C7.37 11 3.74 11 0 11 C0 7.37 0 3.74 0 0 Z " fill="#A2C5FD" transform="translate(154,121)"/>
<path d="M0 0 C3.63 0 7.26 0 11 0 C11 3.63 11 7.26 11 11 C7.37 11 3.74 11 0 11 C0 7.37 0 3.74 0 0 Z " fill="#CCF8FE" transform="translate(187,110)"/>
<path d="M0 0 C3.63 0 7.26 0 11 0 C11 3.63 11 7.26 11 11 C7.37 11 3.74 11 0 11 C0 7.37 0 3.74 0 0 Z " fill="#406DB4" transform="translate(176,110)"/>
<path d="M0 0 C3.63 0 7.26 0 11 0 C11 3.63 11 7.26 11 11 C7.37 11 3.74 11 0 11 C0 7.37 0 3.74 0 0 Z " fill="#A2C5FD" transform="translate(165,110)"/>
<path d="M0 0 C3.63 0 7.26 0 11 0 C11 3.63 11 7.26 11 11 C7.37 11 3.74 11 0 11 C0 7.37 0 3.74 0 0 Z " fill="#A2C5FD" transform="translate(66,77)"/>
<path d="M0 0 C3.63 0 7.26 0 11 0 C11 3.63 11 7.26 11 11 C7.37 11 3.74 11 0 11 C0 7.37 0 3.74 0 0 Z " fill="#A2C5FD" transform="translate(77,66)"/>
<path d="M0 0 C3.63 0 7.26 0 11 0 C11 3.63 11 7.26 11 11 C7.37 11 3.74 11 0 11 C0 7.37 0 3.74 0 0 Z " fill="#406DB4" transform="translate(66,66)"/>
<path d="M0 0 C3.63 0 7.26 0 11 0 C11 3.63 11 7.26 11 11 C7.37 11 3.74 11 0 11 C0 7.37 0 3.74 0 0 Z " fill="#A2C5FD" transform="translate(88,55)"/>
<path d="M0 0 C3.63 0 7.26 0 11 0 C11 3.63 11 7.26 11 11 C7.37 11 3.74 11 0 11 C0 7.37 0 3.74 0 0 Z " fill="#406DB4" transform="translate(77,55)"/>
<path d="M0 0 C3.63 0 7.26 0 11 0 C11 3.63 11 7.26 11 11 C7.37 11 3.74 11 0 11 C0 7.37 0 3.74 0 0 Z " fill="#406DB4" transform="translate(88,44)"/>
<path d="M0 0 C3.63 0 7.26 0 11 0 C11 3.63 11 7.26 11 11 C7.37 11 3.74 11 0 11 C0 7.37 0 3.74 0 0 Z " fill="#A2C5FD" transform="translate(209,33)"/>
<path d="M0 0 C3.63 0 7.26 0 11 0 C11 3.63 11 7.26 11 11 C7.37 11 3.74 11 0 11 C0 7.37 0 3.74 0 0 Z " fill="#A2C5FD" transform="translate(110,33)"/>
<path d="M0 0 C3.63 0 7.26 0 11 0 C11 3.63 11 7.26 11 11 C7.37 11 3.74 11 0 11 C0 7.37 0 3.74 0 0 Z " fill="#406DB4" transform="translate(99,33)"/>
<path d="M0 0 C3.63 0 7.26 0 11 0 C11 3.63 11 7.26 11 11 C7.37 11 3.74 11 0 11 C0 7.37 0 3.74 0 0 Z " fill="#A2C5FD" transform="translate(88,33)"/>
<path d="M0 0 C3.63 0 7.26 0 11 0 C11 3.63 11 7.26 11 11 C7.37 11 3.74 11 0 11 C0 7.37 0 3.74 0 0 Z " fill="#406DB4" transform="translate(77,33)"/>
<path d="M0 0 C3.63 0 7.26 0 11 0 C11 3.63 11 7.26 11 11 C7.37 11 3.74 11 0 11 C0 7.37 0 3.74 0 0 Z " fill="#A2C5FD" transform="translate(220,22)"/>
<path d="M0 0 C3.63 0 7.26 0 11 0 C11 3.63 11 7.26 11 11 C7.37 11 3.74 11 0 11 C0 7.37 0 3.74 0 0 Z " fill="#A2C5FD" transform="translate(121,22)"/>
<path d="M0 0 C3.63 0 7.26 0 11 0 C11 3.63 11 7.26 11 11 C7.37 11 3.74 11 0 11 C0 7.37 0 3.74 0 0 Z " fill="#406DB4" transform="translate(110,22)"/>
<path d="M0 0 C3.63 0 7.26 0 11 0 C11 3.63 11 7.26 11 11 C7.37 11 3.74 11 0 11 C0 7.37 0 3.74 0 0 Z " fill="#406DB4" transform="translate(88,22)"/>
<path d="M0 0 C3.63 0 7.26 0 11 0 C11 3.63 11 7.26 11 11 C7.37 11 3.74 11 0 11 C0 7.37 0 3.74 0 0 Z " fill="#A2C5FD" transform="translate(77,22)"/>
<path d="M0 0 C3.63 0 7.26 0 11 0 C11 3.63 11 7.26 11 11 C7.37 11 3.74 11 0 11 C0 7.37 0 3.74 0 0 Z " fill="#A2C5FD" transform="translate(231,11)"/>
<path d="M0 0 C3.63 0 7.26 0 11 0 C11 3.63 11 7.26 11 11 C7.37 11 3.74 11 0 11 C0 7.37 0 3.74 0 0 Z " fill="#A2C5FD" transform="translate(132,11)"/>
<path d="M0 0 C3.63 0 7.26 0 11 0 C11 3.63 11 7.26 11 11 C7.37 11 3.74 11 0 11 C0 7.37 0 3.74 0 0 Z " fill="#406DB4" transform="translate(121,11)"/>
</svg>
